{
  "accessors": [
    {
      "bufferView": 0,
      "componentType": 5126,
      "count": 559,
      "max": [
        0.9999997019767761,
        1.0,
        1.0
      ],
      "min": [
        -0.9999990463256836,
        -0.9999993443489075,
        -1.0
      ],
      "type": "VEC3"
    },
    {
      "bufferView": 1,
      "componentType": 5126,
      "count": 559,
      "max": [
        1.0,
        1.0,
        1.0
      ],
      "min": [
        -1.0,
        -1.0,
        -1.0
      ],
      "type": "VEC3"
    },
    {
      "bufferView": 2,
      "componentType": 5126,
      "count": 559,
      "max": [
        1.0,
        1.0,
        0.04912644624710083,
        1.0
      ],
      "min": [
        -1.0,
        -1.0,
        -0.04912644624710083,
        1.0
      ],
      "type": "VEC4"
    },
    {
      "bufferView": 3,
      "componentType": 5126,
      "count": 559,
      "max": [
        1.0,
        1.0
      ],
      "min": [
        0.0,
        0.0
      ],
      "type": "VEC2"
    },
    {
      "bufferView": 4,
      "componentType": 5125,
      "count": 2880,
      "max": [
        558
      ],
      "min": [
        0
      ],
      "type": "SCALAR"
    }
  ],
  "asset": {
    "version": "2.0"
  },
  "bufferViews": [
    {
      "buffer": 0,
      "byteLength": 6708,
      "target": 34962
    },
    {
      "buffer": 0,
      "byteLength": 6708,
      "byteOffset": 6708,
      "target": 34962
    },
    {
      "buffer": 0,
      "byteLength": 8944,
      "byteOffset": 13416,
      "target": 34962
    },
    {
      "buffer": 0,
      "byteLength": 4472,
      "byteOffset": 22360,
      "target": 34962
    },
    {
      "buffer": 0,
      "byteLength": 11520,
      "byteOffset": 26832,
      "target": 34963
    }
  ],
  "buffers": [
    {
      "byteLength": 38352,
      "uri": "tf.bin"
    }
  ],
  "materials": [
    {
      "emissiveFactor": [
        9.999999974752427e-07,
        9.999899930335232e-07,
        9.999899930335232e-07
      ],
      "name": "マテリアル",
      "pbrMetallicRoughness": {
        "baseColorFactor": [
          1.0,
          0.9999899864196777,
          0.9999899864196777,
          1.0
        ],
        "metallicFactor": 0.0,
        "roughnessFactor": 0.0
      }
    }
  ],
  "meshes": [
    {
      "primitives": [
        {
          "attributes": {
            "NORMAL": 1,
            "POSITION": 0,
            "TANGENT": 2,
            "TEXCOORD_0": 3
          },
          "indices": 4,
          "material": 0,
          "mode": 4
        }
      ]
    }
  ],
  "nodes": [
    {
      "mesh": 0,
      "name": "球",
      "rotation": [
        -0.7071068286895752,
        0.0,
        0.0,
        0.7071067094802856
      ],
      "scale": [
        100.0,
        100.0,
        100.0
      ],
      "translation": [
        0.0,
        0.0,
        0.0
      ]
    }
  ],
  "samplers": [
    {
      "wrapS": 10497,
      "wrapT": 10497
    }
  ],
  "scenes": [
    {
      "nodes": [
        0
      ]
    }
  ]
}
